<?xml version="1.0" encoding="utf-8" ?>
<!-- https://uxwing.com/snowman-with-a-carrot-nose-icon/ -->
<svg xmlns="http://www.w3.org/2000/svg" shape-rendering="geometricPrecision" text-rendering="geometricPrecision" image-rendering="optimizeQuality" fill-rule="evenodd" clip-rule="evenodd" viewBox="0 0 512 494.13"><path fill="#1A1A1A" fill-rule="nonzero" d="M381.39 212.47c13.89 14.03 25.29 30.4 33.51 48.43 9.48 20.79 14.74 43.73 14.74 67.78 0 46.22-19.26 86.88-50.44 116.13-16.37 15.34-36.02 27.53-57.87 35.69h160.86c3.76 0 6.82 3.05 6.82 6.81 0 3.77-3.06 6.82-6.82 6.82H29.81c-3.76 0-6.81-3.05-6.81-6.82 0-3.76 3.05-6.81 6.81-6.81h160.86c-21.85-8.16-41.5-20.35-57.87-35.69-31.18-29.25-50.44-69.92-50.44-116.13 0-24 5.21-46.85 14.61-67.54 8.26-18.18 19.74-34.68 33.73-48.8-1.71-6.83-1.69-14.21.47-22.13 2.28-8.4 7.05-17.26 14.8-26.54-4.93-10.03-8.3-21.01-9.78-32.78l-.01-.06c-3.96-31.57 6.28-61.99 25.84-85.53 19.43-23.37 48.09-39.99 81.13-44.16h.02l2.4-.3c32.12-3.51 62.86 4.07 86.69 20.79 24.07 16.89 41.02 43.01 45.22 76.36l.01.05.03-.01.26 2.36c2.56 23.9-1.51 45.48-10.74 63.81 7.39 7.74 12.1 15.6 14.47 23.39 2.63 8.63 2.43 16.98-.12 24.88zm-5.64 11.63l-.01.01 20.62 45.26c117.5 257.73 25.98 56.93-20.61-45.27z"/><path fill="#A8CCD0" d="M376.81 222.4c26.47 28.05 42.61 65.34 42.61 106.28 0 87.17-73.17 153.23-163.42 153.23-90.25 0-163.42-66.06-163.42-153.23 0-40.76 16-77.91 42.26-105.91 1.28 2.32 2.77 4.58 4.45 6.76 7.78 10.08 19.71 18.3 33.45 24.71 25.61 11.96 58.3 17.91 81.06 17.79 34.71-.17 68.61-8.69 92.61-22.21 12.97-7.31 23.29-16.21 29.67-26.24.25-.39.5-.79.73-1.18z"/><path fill="#FDFEFE" d="M356.81 243.21c6.27 16.31 9.71 34.03 9.71 52.55 0 80.89-65.58 146.47-146.47 146.47-48.04 0-90.67-23.13-117.38-58.85a152.75 152.75 0 01-10.09-54.7c0-40.76 16-77.91 42.26-105.91 1.28 2.32 2.77 4.58 4.45 6.76 7.78 10.08 19.71 18.3 33.45 24.71 25.61 11.96 58.3 17.91 81.06 17.79 34.71-.17 68.61-8.69 92.61-22.21 3.69-2.08 7.16-4.29 10.4-6.61z"/><path fill="#1A1A1A" fill-rule="nonzero" d="M129.36 269.24a6.489 6.489 0 01-7.37 10.68l-68.73-47.3-45.18 11.63a6.484 6.484 0 01-7.88-4.68 6.489 6.489 0 014.68-7.88l34.22-8.81-32.74-22.53c-2.95-2.04-3.69-6.08-1.66-9.02a6.5 6.5 0 019.03-1.66l31.79 21.88-5.14-31.85a6.497 6.497 0 015.39-7.43c3.53-.56 6.86 1.86 7.42 5.39l7.1 44.06 69.07 47.52zM458.81 177.66c.56-3.53 3.89-5.95 7.42-5.39 3.54.57 5.95 3.89 5.39 7.43l-5.13 31.85 31.78-21.88a6.5 6.5 0 019.03 1.66c2.03 2.94 1.29 6.98-1.66 9.02l-32.74 22.53 34.22 8.81c3.47.89 5.56 4.42 4.68 7.88a6.484 6.484 0 01-7.88 4.68l-45.18-11.63-68.73 47.3a6.489 6.489 0 01-7.37-10.68l69.07-47.52 7.1-44.06z"/><path fill="#EB5A6D" d="M361.91 173.24c17.97 20.43 13.6 40.25-3.54 55.98-4.27-11.47-9.56-22.54-16.01-33.17 4.08-3.6 7.88-7.48 11.36-11.62 2.97-3.55 5.71-7.28 8.19-11.19zm-72.07 85.61a212.302 212.302 0 01-36.08 3.31c-49.46.25-148.28-29.71-102.59-89.16 8.12 12.94 19 23.96 31.79 32.64 24.71 16.74 56.62 24.67 89.52 20.53l.02-.01c1.38-.17 2.76-.36 4.12-.57 6.22 10.8 10.43 21.9 13.22 33.26z"/><path fill="#1A1A1A" fill-rule="nonzero" d="M336.72 187.39c.2.25.4.5.58.77 14.85 21.96 24.41 45.96 29.91 71.52 5.41 25.18 6.83 51.87 5.44 79.6-.01.18-.03.36-.04.54v25.89a4.475 4.475 0 01-8.95 0v-17.06c-.18.02-.36.03-.54.04l-14.82.54v16.48c0 2.47-2 4.47-4.47 4.47-2.46 0-4.47-2-4.47-4.47v-16.15l-10.62.4v15.75c0 2.47-2 4.47-4.47 4.47-2.47 0-4.47-2-4.47-4.47v-15.42l-15.26.56h-.66c-.2-.01-.41-.02-.61-.04v14.9a4.475 4.475 0 01-8.95 0v-24.15l.01-.09c-.02-.27-.02-.54-.01-.81l.01-.21c1.46-43.21 2.84-83.75-21.35-120.81a9.998 9.998 0 01-1.36-3.25l-.07-.38c25.86-3.32 48.38-13.36 65.17-28.62z"/><path fill="#EB5A6D" d="M286.87 223.64c15.32 28.18 18.17 57.57 18.03 88.28l58.24-1.03c-1.06-39.5-9.25-76.2-28.57-108.57-13.58 9.98-29.74 17.25-47.7 21.32zm17.92 96.93c-.13 6.74-.36 13.54-.6 20.4l58.58-2.16c.33-6.49.49-12.92.49-19.28l-58.47 1.04z"/><path fill="#1A1A1A" fill-rule="nonzero" d="M256.76 376.8c4.38 0 8.35 1.78 11.22 4.65 2.87 2.87 4.65 6.84 4.65 11.22 0 4.38-1.78 8.35-4.65 11.22a15.826 15.826 0 01-11.22 4.65c-4.38 0-8.35-1.78-11.22-4.65a15.826 15.826 0 01-4.65-11.22c0-4.38 1.78-8.35 4.65-11.22 2.87-2.87 6.84-4.65 11.22-4.65zm0-83.61c4.38 0 8.35 1.78 11.22 4.65 2.87 2.87 4.65 6.84 4.65 11.23 0 4.38-1.78 8.35-4.65 11.22a15.826 15.826 0 01-11.22 4.65c-4.38 0-8.35-1.78-11.22-4.65a15.826 15.826 0 01-4.65-11.22c0-4.39 1.78-8.36 4.65-11.23 2.87-2.87 6.84-4.65 11.22-4.65zm0 42.34c4.38 0 8.35 1.78 11.22 4.65 2.87 2.87 4.65 6.84 4.65 11.22 0 4.39-1.78 8.35-4.65 11.23a15.826 15.826 0 01-11.22 4.65c-4.38 0-8.35-1.78-11.22-4.65-2.87-2.88-4.65-6.84-4.65-11.23 0-4.38 1.78-8.35 4.65-11.22 2.87-2.87 6.84-4.65 11.22-4.65zm-2.82 57.14c0 9.55 0-9.54 0 0z"/><path fill="#B6D0D5" d="M256.76 383.32c5.16 0 9.35 4.19 9.35 9.35 0 5.16-4.19 9.35-9.35 9.35-5.16 0-9.35-4.19-9.35-9.35 0-5.16 4.19-9.35 9.35-9.35zm0-83.6c5.16 0 9.35 4.18 9.35 9.35 0 5.16-4.19 9.34-9.35 9.34-5.16 0-9.35-4.18-9.35-9.34 0-5.17 4.19-9.35 9.35-9.35zm0 42.34c5.16 0 9.35 4.18 9.35 9.34 0 5.17-4.19 9.35-9.35 9.35-5.16 0-9.35-4.18-9.35-9.35 0-5.16 4.19-9.34 9.35-9.34z"/><path fill="#AACBD0" d="M244.43 11.25c60.79-7.67 116.34 27.39 123.17 89.91 6.83 62.53-35.58 107.23-96.37 114.9-60.8 7.67-117.7-29.12-124.93-86.45-7.24-57.33 37.34-110.69 98.13-118.36z"/><path fill="#FDFDFE" d="M244.43 11.25c32.94-4.16 64.34 4.24 87.28 22.75 6.86 11.78 11.45 25.42 13.12 40.7 6.83 62.53-35.58 107.22-96.37 114.89-33.91 4.28-66.61-5.28-90.16-24.51-6.18-10.59-10.37-22.5-12-35.47-7.24-57.33 37.34-110.69 98.13-118.36z"/><path fill="#1A1A1A" d="M207.98 158.13a6.5 6.5 0 110 13 6.5 6.5 0 010-13zM319.73 147l-40.57 3.3c-1.33.11-2.4.22-3.46.34-2.3.24-4.7.5-7.38.59-2.02.06-4.03 0-5.97-.27-2.17-.31-4.28-.88-6.27-1.83-4.97-2.39-8.33-6.35-10.15-10.89-1.91-4.8-2.04-10.26-.45-15.13l.36-.99c2.28-6.12 6.41-9.99 11.5-11.87 4.8-1.79 10.3-1.68 15.66.07l1.22.44c1.29.48 2.5.99 3.71 1.5l.01-.02c1.23.52 2.47 1.04 3.11 1.28l40.81 15.43c2.64.92 4.71 2.6 5.92 4.52.96 1.53 1.43 3.24 1.34 5l-.01.2c-.14 1.82-.85 3.54-2.21 5-.2.21-.4.4-.61.57-1.44 1.29-3.44 2.26-6.05 2.69l-.51.07zm-16.14-75.79c5.3 0 10.11 2.16 13.6 5.64l.03.03c3.48 3.49 5.64 8.3 5.64 13.6 0 5.31-2.16 10.12-5.64 13.61v.03a19.253 19.253 0 01-13.63 5.64c-5.32 0-10.15-2.16-13.63-5.64l-.4-.44c-3.26-3.45-5.25-8.1-5.25-13.2 0-5.3 2.16-10.11 5.65-13.6v-.03c3.48-3.48 8.31-5.64 13.63-5.64zm4.44 14.83a6.29 6.29 0 00-4.44-1.82c-1.73 0-3.3.7-4.43 1.83l-.02-.01a6.29 6.29 0 00-1.82 4.44c0 1.63.61 3.1 1.6 4.21l.24.22a6.217 6.217 0 004.43 1.84c1.73 0 3.3-.7 4.43-1.84l.01.02a6.296 6.296 0 001.82-4.45c0-1.74-.7-3.31-1.82-4.44zm-97.3-14.83c5.3 0 10.11 2.16 13.6 5.64l.03.03c3.48 3.49 5.65 8.3 5.65 13.6 0 5.31-2.17 10.12-5.65 13.61l-.03.03c-3.49 3.48-8.3 5.64-13.6 5.64-5.33 0-10.15-2.16-13.64-5.64l-.39-.44c-3.26-3.45-5.25-8.1-5.25-13.2 0-5.3 2.16-10.11 5.64-13.6l.03-.03c3.49-3.48 8.3-5.64 13.61-5.64zm4.44 14.83a6.29 6.29 0 00-4.44-1.82c-1.74 0-3.32.7-4.45 1.82a6.29 6.29 0 00-1.82 4.44c0 1.63.61 3.1 1.6 4.21l.24.22a6.2 6.2 0 004.43 1.84c1.74 0 3.31-.7 4.44-1.82a6.296 6.296 0 001.82-4.45c0-1.74-.7-3.31-1.82-4.44zm90.7 72.09a6.5 6.5 0 110 13c-3.6 0-6.51-2.91-6.51-6.5s2.91-6.5 6.51-6.5zm-25.02 12.48c3.59 0 6.5 2.91 6.5 6.51a6.5 6.5 0 11-13 0c0-3.6 2.91-6.51 6.5-6.51zm-24.89 3.94c3.59 0 6.5 2.91 6.5 6.51a6.5 6.5 0 11-13 0c0-3.6 2.91-6.51 6.5-6.51zm-23.63-3.94c3.59 0 6.5 2.91 6.5 6.51a6.5 6.5 0 01-6.5 6.5c-3.6 0-6.51-2.91-6.51-6.5 0-3.6 2.91-6.51 6.51-6.51z"/><path fill="#EC7F3F" d="M319.25 140.86l-36.34 2.94c.55-7.82-.1-13.88-4.1-6.05-1.01 1.99-1.91 4.21-2.76 6.65-2.53.27-5.24.59-7.89.68-3.39.1-6.7-.19-9.42-1.5-7.25-3.48-9.62-11.77-7.4-18.57 1.98-6.07 6.3-9.17 11.42-9.78-1.85 9.57-3.57 30.17 2.55 18.18 2.32-4.54 4-10.27 5.97-17.17.26.09.53.18.79.28 2.27.85 4.52 1.9 6.81 2.76l40.93 15.48c3.86 1.36 4.76 5.22-.56 6.1z"/></svg>
